<svg xmlns="http://www.w3.org/2000/svg" width="1297.6" height="111.4" viewBox="0 0 1297.6 111.4"><path d="M554.2 2.5c12.5 0 24.5-.1 36.5.1 1.2 0 3 2 3.3 3.3 4.4 19.7 8.6 39.5 12.8 59.3 0 .1.2.2.1.1l15.2-62.6h30c5.1 20.9 10.1 41.7 14.8 61 2.6-11.4 5.4-24.3 8.3-37.2 1.6-7 3.2-13.9 5.1-20.8.4-1.3 2.2-3.1 3.4-3.1 12-.2 24-.1 36.5-.1-.3 1.4-.3 2.5-.7 3.5-11.6 33.1-23.3 66.1-34.8 99.2-1 2.8-2.1 3.9-5.2 3.9-8.5-.2-17-.2-25.5 0-3 .1-4.3-.7-4.9-3.9-3.5-17.6-7.3-35.1-11.1-52.6-.1-.4-.5-.8-.8-1.2-2.3 10.4-4.5 20.6-6.9 30.8-1.8 7.8-4.1 15.4-5.8 23.2-.6 2.8-1.7 3.8-4.6 3.8-8.5-.2-17 .1-25.5-.2-1.5 0-3.8-1.4-4.3-2.7-12-33.6-23.8-67.3-35.6-101-.3-.7-.2-1.4-.3-2.8zM176.2 111.4c-24.5-.8-43.9-9.1-54.6-31.5-14-29.6-1.3-71.8 41.9-78.9 14.7-2.4 28.9-.7 42.2 6 20.5 10.4 32 33.6 28.2 56.9-4 24.6-21 42.2-44.7 46.1-4.6.7-9.2 1-13 1.4zm19.1-55.6c0-13.2-7.8-21.7-20-21.8-11.9 0-20.1 8.9-20.1 21.9 0 12.6 8.2 21.1 20.2 21.1 12.1.1 19.9-8.3 19.9-21.2zM390.1 111.4c-24.4-.9-43.8-9.1-54.4-31.5-14-29.7-1.3-71.8 41.9-78.8 14.5-2.4 28.5-.7 41.7 5.8 20.6 10.2 32.2 33.1 28.7 56.6-3.6 24.6-21 42.6-44.9 46.5-4.5.7-9.2 1-13 1.4zm19.2-55.8c0-13.1-8-21.6-20.2-21.5-11.6.1-19.8 9-19.8 21.6 0 12.7 8 21.3 19.9 21.4 12.3 0 20.1-8.3 20.1-21.5zM918.9 72.1h-16.3v-24.7h59.3c-.1 14.4-.8 28.6-9.3 40.7-12.3 17.4-30.2 23-50.5 23-19.5.1-35.8-6.8-47.5-22.9-24.3-33.7-2.4-82.6 38.7-87.4 18.8-2.2 36.2.7 51.3 12.6 4.5 3.5 7.9 8.3 12.4 13.2-12.3 4.6-23.5 8.8-34.7 12.8-.9.3-2.6-.3-3.3-1-5.8-6.6-12.9-7.8-20.9-4.9-8.6 3.2-12.6 10.2-13.8 18.7-1.1 8.2-.4 16.3 5.4 23.1 6.1 7.1 18.4 8.4 25.8 2.6 1.6-1.2 2.7-3.1 4-4.6-.1-.4-.4-.8-.6-1.2zM1085.2 27c-11.5 4.3-22.6 8.5-33.9 12.5-.9.3-2.6-.2-3.3-1-5.8-6.6-12.9-7.8-20.8-4.9-8.6 3.1-12.6 10.2-13.8 18.7-1.2 8.4-.3 16.7 5.7 23.5 6.2 6.9 18.8 8 25.9 2 1.4-1.2 2.4-2.9 4.3-5.3h-17.7v-24.9h59.9c-.9 8.1-1.1 16.1-2.8 23.8-4.8 21.2-21 35.3-43.1 38.8-13.4 2.1-26.6 1.9-39.2-3.6-24.3-10.7-33.9-31.8-31.7-56.6 3.2-36.8 34.9-52.6 66.1-49.4 16.3 1.7 30.5 7.9 40.9 21.1 1.1 1.4 2.1 3.2 3.5 5.3zM1297.6 109c-14.7 0-28 .1-41.3-.1-1.5 0-3.6-1.5-4.3-2.9-5.3-10.1-10.3-20.4-16.4-30.5v33.2h-37.2v-105.8c1-.1 1.8-.4 2.6-.4 17.8.1 35.7-.3 53.4.6 24 1.2 39.1 21.9 32.5 47.1-2.4 9.3-9.5 14.5-18 16.6 9.5 13.8 18.8 27.6 28.7 42.2zm-62.2-59c2.7 0 4.8.1 6.9 0 4-.3 7.2-2 8.4-5.9 1.2-3.9 1-8.3-2.6-10.3-3.2-1.8-7.5-1.7-11.3-2.3-.4-.1-1.3 1.4-1.4 2.2-.1 5.2 0 10.5 0 16.3zM838.3 108.8h-40c-1-3.4-1.7-6.8-3-10-.6-1.4-2.5-3-3.9-3.1-7.6-.3-15.3-.1-23-.2-2.5 0-4 .6-4.3 3.5-.4 3.3-1.4 6.4-2.2 9.8h-40.1c.5-1.7.8-3.2 1.3-4.7 11.2-32.3 22.4-64.6 33.4-97 1.2-3.6 2.9-4.8 6.8-4.7 11.3.3 22.6.2 34 0 2.5 0 3.9.6 4.8 3.1 12 33.8 24.1 67.6 36.1 101.3l.1 2zm-58.1-71.9c-2.8 12.1-5.3 22.6-7.9 33.6h15.5c-2.5-11-4.9-21.6-7.6-33.6zM1176.4 69.3h-29.7v10.5h33.8v28.8h-72v-105.8h71v28.3h-32.6v10.6h29.6c-.1 9.4-.1 18.1-.1 27.6zM471.4 73.5c7.7 3.2 14.5 6.4 21.7 8.8 2.9 1 6.6.3 9.8-.2 3.3-.5 5.2-2.7 5.3-6.2.1-3.6-2.4-5-5.3-5.7-4.7-1.1-9.4-2-14.2-2.8-28.6-5.2-30.1-35.1-17.2-50.6 11.8-14.3 27.8-17.9 45.4-16.5 9.4.8 18.2 3.4 26.4 9.1-3.4 8.8-6.7 17.6-9.9 25.7-6.2-2.3-11.8-4.9-17.6-6.5-2.9-.8-6.4-.5-9.2.5-1.8.6-4.1 3.3-4.1 5.1 0 1.7 2.3 4.3 4.1 5 4.7 1.7 9.6 2.4 14.5 3.6 12.8 3.1 22.9 9.3 25.1 23.5 2.6 16.2-3.1 29.6-16.2 37.2-15.9 9.3-33 9.3-50.2 4.9-6.5-1.7-12.8-4.3-19.5-6.7 4-10.1 7.8-19.7 11.1-28.2zM55.6 30.4c3.5-8.3 7-16.1 10.1-24.1 1.2-2.9 2.7-4 5.9-3.9 12.6.2 25.3.1 38.7.1-1.2 2.2-2 3.7-2.8 5.2-10.3 17.2-20.7 34.4-30.9 51.8-1.3 2.3-2.1 5.2-2.2 7.9-.2 13.6-.1 27.3-.1 41.3h-38c0-13.2-.2-26.3.1-39.4.1-4.5-1.1-8.3-3.5-12.1-10.3-16.8-20.5-33.6-30.7-50.3-.7-1.2-1.3-2.3-2.2-4 1.9-.2 3.3-.4 4.7-.4 11.5 0 23 .1 34.5-.1 2.7 0 4.2.8 5.3 3.3 3.5 8.1 7.2 16.1 11.1 24.7zM289.4 2.9v30.7c0 12.2.1 24.3-.1 36.5-.1 3.7.9 5 4.7 4.9 9.1-.3 18.3-.1 27.8-.1v33.8h-70.3v-105.7c12.4-.1 24.8-.1 37.9-.1z"/><path fill="#fff" d="M780.2 36.9c2.7 11.9 5.1 22.6 7.6 33.6h-15.5c2.6-10.9 5-21.5 7.9-33.6z"/></svg>