<?xml version="1.0" standalone="no"?>
<!DOCTYPE svg PUBLIC "-//W3C//DTD SVG 20010904//EN"
 "http://www.w3.org/TR/2001/REC-SVG-20010904/DTD/svg10.dtd">
<svg version="1.0" xmlns="http://www.w3.org/2000/svg"
 width="192.000000pt" height="192.000000pt" viewBox="0 0 192.000000 192.000000"
 preserveAspectRatio="xMidYMid meet">
<metadata>
Created by potrace 1.14, written by Peter Selinger 2001-2017
</metadata>
<g transform="translate(0.000000,192.000000) scale(0.100000,-0.100000)"
fill="#000000" stroke="none">
<path d="M502 1615 c-1 -36 2 -38 51 -38 14 0 17 -10 17 -68 0 -38 3 -69 8
-70 4 -1 20 -2 36 -3 30 -1 30 -1 29 -64 0 -35 -3 -65 -6 -68 -3 -3 -19 -6
-36 -6 l-30 -1 -3 -70 -3 -71 -171 1 -171 1 -1 -34 c-1 -26 3 -34 16 -35 9 -1
72 -1 140 -1 124 0 126 -1 123 -40 -1 -9 3 -19 10 -23 14 -9 129 -14 130 -6 1
3 2 21 4 39 2 31 1 32 -37 32 -38 0 -39 1 -36 32 3 28 7 32 30 33 37 0 43 9
44 73 1 31 2 60 3 64 0 4 16 6 33 5 30 -2 33 1 34 28 1 17 2 33 3 37 1 3 110
5 244 5 l242 -2 0 -27 c0 -33 8 -41 42 -43 28 -1 28 -2 27 -68 0 -37 2 -68 5
-68 4 -1 20 -2 36 -3 26 -1 30 -6 33 -33 3 -30 1 -32 -34 -35 -35 -3 -38 -6
-39 -35 -1 -18 3 -34 9 -34 6 -1 38 -2 71 -3 l60 -1 1 -61 c0 -63 8 -85 27
-83 45 5 48 1 44 -61 -4 -66 1 -74 46 -75 l27 -1 0 72 c0 67 -1 71 -22 71 -48
1 -48 1 -48 73 l0 70 -35 0 c-33 0 -35 2 -35 34 l0 34 118 0 c176 0 162 -3
162 36 l0 34 -152 0 c-84 0 -163 1 -175 1 -22 1 -23 5 -23 72 0 70 0 71 -24
67 -38 -8 -44 2 -47 72 l-3 65 30 1 c16 1 32 2 37 3 4 1 7 16 7 35 l0 34 68
-2 67 -1 0 -65 0 -65 -34 -5 c-28 -4 -35 -10 -36 -30 -4 -44 9 -51 68 -41 4 0
7 17 7 36 0 23 5 35 13 34 54 -7 57 -3 57 71 l0 70 -35 0 c-33 0 -35 2 -35 35
l0 36 -107 -3 -108 -3 0 -65 0 -65 -309 -3 c-184 -1 -312 1 -315 7 -5 7 -6 96
-2 122 1 3 31 5 68 5 l67 -1 1 35 0 35 -141 3 -141 3 -1 -36z"/>
<path d="M717 1291 c-2 -3 -3 -35 -3 -71 1 -62 2 -65 26 -66 14 -1 30 -2 35
-2 6 -1 9 -30 8 -67 -1 -36 1 -65 5 -66 4 -1 21 -2 37 -3 l30 -1 0 -70 0 -70
33 1 c17 0 32 -3 33 -8 8 -63 8 -63 -66 -63 l-70 0 0 70 c0 65 -2 70 -23 71
-49 3 -51 4 -47 27 6 33 -8 49 -41 45 -26 -3 -29 -7 -29 -38 0 -31 3 -35 25
-35 41 -1 46 -11 45 -77 l-1 -63 -132 0 c-73 0 -138 2 -143 6 -6 3 -9 19 -7
35 2 24 8 29 30 29 38 0 43 9 43 81 l0 65 -37 -3 -38 -2 0 -68 c0 -67 0 -68
-27 -69 -16 -1 -32 -1 -36 0 -4 1 -7 -31 -5 -71 l3 -73 165 -1 c91 -1 170 -2
175 -3 7 0 11 -28 10 -68 -1 -65 -2 -68 -25 -69 -50 -2 -51 -3 -48 -37 3 -30
6 -32 40 -33 35 -1 37 0 34 27 -4 34 10 48 42 43 12 -2 23 1 23 6 1 6 3 33 4
60 1 28 3 56 4 63 1 10 27 13 106 12 l106 0 -3 70 -3 70 -35 5 -35 5 0 65 c0
64 0 65 -28 66 -15 1 -30 4 -33 7 -4 3 -7 34 -8 68 -1 61 -2 62 -31 66 -16 3
-32 7 -35 9 -3 3 -5 33 -5 67 l0 62 -33 1 c-18 1 -34 -2 -35 -5z"/>
<path d="M1136 1290 c-1 -3 -2 -34 -2 -70 l1 -64 35 -1 34 0 2 71 3 72 -35 -1
c-20 -1 -37 -4 -38 -7z"/>
<path d="M1068 1153 c-4 -7 -3 -100 0 -129 2 -9 24 -11 64 -5 3 1 6 31 5 69
l-2 67 -32 3 c-17 2 -33 -1 -35 -5z"/>
<path d="M150 1055 c0 -19 3 -36 8 -36 25 -5 62 -4 63 1 0 3 2 13 4 24 6 32
-6 46 -41 46 -32 0 -34 -2 -34 -35z"/>
<path d="M1698 1078 c-8 -23 7 -61 26 -64 33 -5 46 7 46 42 0 32 -2 34 -34 34
-19 0 -36 -6 -38 -12z"/>
<path d="M82 981 c3 -33 6 -36 36 -37 31 -1 32 1 32 37 0 38 -1 38 -36 37 -34
-1 -35 -2 -32 -37z"/>
<path d="M999 1003 c-4 -63 -3 -116 1 -121 8 -10 54 -11 60 -1 3 4 5 36 5 71
l0 63 -32 3 c-26 3 -33 -1 -34 -15z"/>
<path d="M1207 1013 c-3 -5 -4 -21 -3 -36 3 -21 -1 -27 -18 -28 -11 -1 -28 -2
-36 -3 -12 -1 -15 -28 -15 -166 -1 -91 1 -171 3 -178 2 -6 14 -10 27 -8 30 6
40 -4 40 -39 0 -28 3 -30 35 -30 33 0 35 -2 35 -35 0 -30 3 -35 25 -36 14 -1
31 -2 38 -3 7 0 12 -15 12 -36 l0 -35 175 0 175 0 0 35 c0 35 3 38 53 38 13 0
17 8 17 33 0 34 5 38 48 34 21 -1 27 8 23 38 -3 21 18 40 38 35 10 -3 22 0 25
5 3 6 7 75 7 154 1 218 4 200 -33 196 -31 -3 -33 -1 -34 32 0 33 -2 35 -37 38
-37 2 -37 2 -37 -36 0 -34 3 -39 23 -39 12 -1 27 -1 34 -2 9 -1 13 -48 15
-175 l3 -174 -35 2 c-33 1 -35 -1 -38 -36 -3 -36 -4 -37 -38 -34 -34 4 -40 -3
-34 -43 1 -8 -3 -17 -8 -20 -8 -5 -304 -7 -334 -2 -4 1 -8 16 -10 34 -3 28 -6
32 -31 30 -28 -2 -31 1 -41 48 -4 16 -12 26 -23 26 -50 0 -48 -8 -48 173 0
106 4 170 10 171 6 1 21 1 35 1 23 1 26 5 25 37 0 33 -3 36 -32 39 -17 2 -33
-1 -36 -5z"/>
<path d="M10 770 l0 -177 35 0 c19 0 35 5 36 11 0 6 1 85 2 176 l1 165 -37 1
-37 1 0 -177z"/>
<path d="M83 584 c-10 -26 2 -59 22 -60 11 -1 26 -2 33 -3 7 -1 12 -15 12 -36
0 -33 2 -35 33 -33 30 3 32 1 35 -34 l3 -36 174 -2 174 -1 3 38 c2 27 7 37 17
35 32 -7 58 7 57 30 -2 35 -13 45 -43 44 -24 -2 -28 -7 -31 -34 -2 -18 -9 -33
-15 -33 -62 -7 -327 -2 -328 6 -1 6 -3 17 -4 25 -1 8 -3 20 -4 26 0 6 -16 10
-33 10 -30 -1 -33 2 -38 34 -4 30 -9 35 -33 36 -16 1 -31 -4 -34 -12z"/>
</g>
</svg>
